{
  "accessors": [
    {
      "bufferView": 2,
      "componentType": 5126,
      "count": 2740,
      "max": [
        -0.6282873749732971,
        0.9637205600738525,
        0.0858362466096878
      ],
      "min": [
        -0.7999599575996399,
        0.44486674666404724,
        -0.0858362466096878
      ],
      "type": "VEC3"
    },
    {
      "bufferView": 2,
      "byteOffset": 32880,
      "componentType": 5126,
      "count": 2740,
      "max": [
        1.0,
        1.0,
        1.0
      ],
      "min": [
        -1.0,
        -1.0,
        -1.0
      ],
      "type": "VEC3"
    },
    {
      "bufferView": 3,
      "componentType": 5126,
      "count": 2740,
      "max": [
        0.9998222589492798,
        0.9996631741523743,
        0.9997906684875488,
        1.0
      ],
      "min": [
        -0.999257504940033,
        -1.0,
        -0.9997962117195129,
        -1.0
      ],
      "type": "VEC4"
    },
    {
      "bufferView": 1,
      "componentType": 5126,
      "count": 2740,
      "max": [
        0.984452486038208,
        0.9900612235069275
      ],
      "min": [
        0.020846635103225708,
        0.013136625289916992
      ],
      "type": "VEC2"
    },
    {
      "bufferView": 1,
      "byteOffset": 21920,
      "componentType": 5126,
      "count": 2740,
      "max": [
        0.984452486038208,
        0.9900612235069275
      ],
      "min": [
        0.020846635103225708,
        0.013136625289916992
      ],
      "type": "VEC2"
    },
    {
      "bufferView": 1,
      "byteOffset": 43840,
      "componentType": 5126,
      "count": 2740,
      "max": [
        0.984452486038208,
        0.9900612235069275
      ],
      "min": [
        0.020846635103225708,
        0.013136625289916992
      ],
      "type": "VEC2"
    },
    {
      "bufferView": 1,
      "byteOffset": 65760,
      "componentType": 5126,
      "count": 2740,
      "max": [
        0.984452486038208,
        0.9900612235069275
      ],
      "min": [
        0.020846635103225708,
        0.013136625289916992
      ],
      "type": "VEC2"
    },
    {
      "bufferView": 1,
      "byteOffset": 87680,
      "componentType": 5126,
      "count": 2740,
      "max": [
        0.984452486038208,
        0.9900612235069275
      ],
      "min": [
        0.020846635103225708,
        0.013136625289916992
      ],
      "type": "VEC2"
    },
    {
      "bufferView": 0,
      "componentType": 5125,
      "count": 7590,
      "type": "SCALAR"
    },
    {
      "bufferView": 2,
      "byteOffset": 65760,
      "componentType": 5126,
      "count": 732,
      "max": [
        -0.6573277115821838,
        0.6929188966751099,
        0.05679594725370407
      ],
      "min": [
        -0.7709196209907532,
        0.4730992019176483,
        -0.05679595097899437
      ],
      "type": "VEC3"
    },
    {
      "bufferView": 2,
      "byteOffset": 74544,
      "componentType": 5126,
      "count": 732,
      "max": [
        1.0,
        0.6745519638061523,
        1.0
      ],
      "min": [
        -1.0,
        -0.6745503544807434,
        -1.0
      ],
      "type": "VEC3"
    },
    {
      "bufferView": 3,
      "byteOffset": 43840,
      "componentType": 5126,
      "count": 732,
      "max": [
        0.7046360373497009,
        0.9006236791610718,
        0.6743916273117065,
        -1.0
      ],
      "min": [
        -0.7780534625053406,
        -0.9572933912277222,
        -0.901022732257843,
        -1.0
      ],
      "type": "VEC4"
    },
    {
      "bufferView": 1,
      "byteOffset": 109600,
      "componentType": 5126,
      "count": 732,
      "max": [
        0.9858359098434448,
        0.9163124561309814
      ],
      "min": [
        0.027552783489227295,
        0.08717447519302368
      ],
      "type": "VEC2"
    },
    {
      "bufferView": 1,
      "byteOffset": 115456,
      "componentType": 5126,
      "count": 732,
      "max": [
        0.9858359098434448,
        0.9163124561309814
      ],
      "min": [
        0.027552783489227295,
        0.08717447519302368
      ],
      "type": "VEC2"
    },
    {
      "bufferView": 1,
      "byteOffset": 121312,
      "componentType": 5126,
      "count": 732,
      "max": [
        0.9858359098434448,
        0.9163124561309814
      ],
      "min": [
        0.027552783489227295,
        0.08717447519302368
      ],
      "type": "VEC2"
    },
    {
      "bufferView": 1,
      "byteOffset": 127168,
      "componentType": 5126,
      "count": 732,
      "max": [
        0.9858359098434448,
        0.9163124561309814
      ],
      "min": [
        0.027552783489227295,
        0.08717447519302368
      ],
      "type": "VEC2"
    },
    {
      "bufferView": 1,
      "byteOffset": 133024,
      "componentType": 5126,
      "count": 732,
      "max": [
        0.9858359098434448,
        0.9163124561309814
      ],
      "min": [
        0.027552783489227295,
        0.08717447519302368
      ],
      "type": "VEC2"
    },
    {
      "bufferView": 1,
      "byteOffset": 138880,
      "componentType": 5126,
      "count": 732,
      "max": [
        0.9858359098434448,
        0.9163124561309814
      ],
      "min": [
        0.027552783489227295,
        0.08717447519302368
      ],
      "type": "VEC2"
    },
    {
      "bufferView": 0,
      "byteOffset": 30360,
      "componentType": 5125,
      "count": 3600,
      "type": "SCALAR"
    },
    {
      "bufferView": 2,
      "byteOffset": 83328,
      "componentType": 5126,
      "count": 1098,
      "max": [
        0.8843784332275391,
        1.0000001192092896,
        0.09363692253828049
      ],
      "min": [
        -0.8317844271659851,
        -1.1176795959472656,
        -0.09363694489002228
      ],
      "type": "VEC3"
    },
    {
      "bufferView": 2,
      "byteOffset": 96504,
      "componentType": 5126,
      "count": 1098,
      "max": [
        0.999997615814209,
        1.0,
        1.0
      ],
      "min": [
        -0.9999976754188538,
        -1.0,
        -1.0
      ],
      "type": "VEC3"
    },
    {
      "bufferView": 3,
      "byteOffset": 55552,
      "componentType": 5126,
      "count": 1098,
      "max": [
        0.9999431371688843,
        0.9999976754188538,
        0.9959216713905334,
        -1.0
      ],
      "min": [
        -0.9991257190704346,
        -0.999946117401123,
        -0.9851860404014587,
        -1.0
      ],
      "type": "VEC4"
    },
    {
      "bufferView": 1,
      "byteOffset": 144736,
      "componentType": 5126,
      "count": 1098,
      "max": [
        0.9900789260864258,
        0.9957984089851379
      ],
      "min": [
        0.054318368434906006,
        0.027670979499816895
      ],
      "type": "VEC2"
    },
    {
      "bufferView": 1,
      "byteOffset": 153520,
      "componentType": 5126,
      "count": 1098,
      "max": [
        0.9900789260864258,
        0.9957984089851379
      ],
      "min": [
        0.054318368434906006,
        0.027670979499816895
      ],
      "type": "VEC2"
    },
    {
      "bufferView": 1,
      "byteOffset": 162304,
      "componentType": 5126,
      "count": 1098,
      "max": [
        0.9900789260864258,
        0.9957984089851379
      ],
      "min": [
        0.054318368434906006,
        0.027670979499816895
      ],
      "type": "VEC2"
    },
    {
      "bufferView": 1,
      "byteOffset": 171088,
      "componentType": 5126,
      "count": 1098,
      "max": [
        0.9900789260864258,
        0.9957984089851379
      ],
      "min": [
        0.054318368434906006,
        0.027670979499816895
      ],
      "type": "VEC2"
    },
    {
      "bufferView": 1,
      "byteOffset": 179872,
      "componentType": 5126,
      "count": 1098,
      "max": [
        0.9900789260864258,
        0.9957984089851379
      ],
      "min": [
        0.054318368434906006,
        0.027670979499816895
      ],
      "type": "VEC2"
    },
    {
      "bufferView": 0,
      "byteOffset": 44760,
      "componentType": 5125,
      "count": 4716,
      "type": "SCALAR"
    }
  ],
  "asset": {
    "extras": {
      "author": "Shanika.Perez (https://sketchfab.com/Shanika.Perez)",
      "license": "CC-BY-4.0 (http://creativecommons.org/licenses/by/4.0/)",
      "source": "https://sketchfab.com/3d-models/traffic-light-7b86bedf64c04e15a0e01a84d29ea93d",
      "title": "Traffic Light"
    },
    "generator": "Sketchfab-12.66.0",
    "version": "2.0"
  },
  "bufferViews": [
    {
      "buffer": 0,
      "byteLength": 63624,
      "name": "floatBufferViews",
      "target": 34963
    },
    {
      "buffer": 0,
      "byteLength": 188656,
      "byteOffset": 63624,
      "byteStride": 8,
      "name": "floatBufferViews",
      "target": 34962
    },
    {
      "buffer": 0,
      "byteLength": 109680,
      "byteOffset": 252280,
      "byteStride": 12,
      "name": "floatBufferViews",
      "target": 34962
    },
    {
      "buffer": 0,
      "byteLength": 73120,
      "byteOffset": 361960,
      "byteStride": 16,
      "name": "floatBufferViews",
      "target": 34962
    }
  ],
  "buffers": [
    {
      "byteLength": 435080,
      "uri": "scene.bin"
    }
  ],
  "images": [
    {
      "uri": "textures/TrafficShell_baseColor.png"
    },
    {
      "uri": "textures/TrafficShell_metallicRoughness.png"
    },
    {
      "uri": "textures/TrafficShell_normal.png"
    },
    {
      "uri": "textures/phong1_baseColor.png"
    },
    {
      "uri": "textures/phong1_metallicRoughness.png"
    },
    {
      "uri": "textures/phong1_emissive.png"
    },
    {
      "uri": "textures/phong1_normal.png"
    },
    {
      "uri": "textures/Pole1_baseColor.png"
    },
    {
      "uri": "textures/Pole1_metallicRoughness.png"
    },
    {
      "uri": "textures/Pole1_normal.png"
    }
  ],
  "materials": [
    {
      "name": "TrafficShell",
      "normalTexture": {
        "index": 2
      },
      "occlusionTexture": {
        "index": 1
      },
      "pbrMetallicRoughness": {
        "baseColorTexture": {
          "index": 0
        },
        "metallicRoughnessTexture": {
          "index": 1
        }
      }
    },
    {
      "emissiveFactor": [
        1.0,
        1.0,
        1.0
      ],
      "emissiveTexture": {
        "index": 5
      },
      "name": "phong1",
      "normalTexture": {
        "index": 6
      },
      "occlusionTexture": {
        "index": 4
      },
      "pbrMetallicRoughness": {
        "baseColorTexture": {
          "index": 3
        },
        "metallicRoughnessTexture": {
          "index": 4
        }
      }
    },
    {
      "name": "Pole1",
      "normalTexture": {
        "index": 9
      },
      "occlusionTexture": {
        "index": 8
      },
      "pbrMetallicRoughness": {
        "baseColorTexture": {
          "index": 7
        },
        "metallicRoughnessTexture": {
          "index": 8
        },
        "roughnessFactor": 0.23342225609756098
      }
    }
  ],
  "meshes": [
    {
      "name": "Object_0",
      "primitives": [
        {
          "attributes": {
            "NORMAL": 1,
            "POSITION": 0,
            "TANGENT": 2,
            "TEXCOORD_0": 3,
            "TEXCOORD_1": 4,
            "TEXCOORD_2": 5,
            "TEXCOORD_3": 6,
            "TEXCOORD_4": 7
          },
          "indices": 8,
          "material": 0,
          "mode": 4
        }
      ]
    },
    {
      "name": "Object_1",
      "primitives": [
        {
          "attributes": {
            "NORMAL": 10,
            "POSITION": 9,
            "TANGENT": 11,
            "TEXCOORD_0": 12,
            "TEXCOORD_1": 13,
            "TEXCOORD_2": 14,
            "TEXCOORD_3": 15,
            "TEXCOORD_4": 16,
            "TEXCOORD_5": 17
          },
          "indices": 18,
          "material": 1,
          "mode": 4
        }
      ]
    },
    {
      "name": "Object_2",
      "primitives": [
        {
          "attributes": {
            "NORMAL": 20,
            "POSITION": 19,
            "TANGENT": 21,
            "TEXCOORD_0": 22,
            "TEXCOORD_1": 23,
            "TEXCOORD_2": 24,
            "TEXCOORD_3": 25,
            "TEXCOORD_4": 26
          },
          "indices": 27,
          "material": 2,
          "mode": 4
        }
      ]
    }
  ],
  "nodes": [
    {
      "children": [
        1
      ],
      "matrix": [
        1.0,
        0.0,
        0.0,
        0.0,
        0.0,
        2.220446049250313e-16,
        -1.0,
        0.0,
        0.0,
        1.0,
        2.220446049250313e-16,
        0.0,
        0.0,
        0.0,
        0.0,
        1.0
      ],
      "name": "Sketchfab_model"
    },
    {
      "children": [
        2
      ],
      "name": "root"
    },
    {
      "children": [
        3
      ],
      "matrix": [
        1.0,
        0.0,
        0.0,
        0.0,
        0.0,
        2.220446049250313e-16,
        1.0,
        0.0,
        0.0,
        -1.0,
        2.220446049250313e-16,
        0.0,
        0.0,
        0.0,
        0.0,
        1.0
      ],
      "name": "GLTF_SceneRootNode"
    },
    {
      "children": [
        4,
        7,
        10
      ],
      "matrix": [
        16.97831916809082,
        0.0,
        0.0,
        0.0,
        0.0,
        16.97831916809082,
        0.0,
        0.0,
        0.0,
        0.0,
        16.97831916809082,
        0.0,
        -13.489309310913086,
        16.72010040283203,
        1.1920928955078125e-07,
        1.0
      ],
      "name": "root_0"
    },
    {
      "children": [
        5
      ],
      "name": "StopLight_1"
    },
    {
      "children": [
        6
      ],
      "name": "StopLight_2"
    },
    {
      "mesh": 0,
      "name": "Object_6"
    },
    {
      "children": [
        8
      ],
      "name": "StopLight_3"
    },
    {
      "children": [
        9
      ],
      "name": "StopLight_4"
    },
    {
      "mesh": 1,
      "name": "Object_9"
    },
    {
      "children": [
        11
      ],
      "name": "Pole_5"
    },
    {
      "children": [
        12
      ],
      "name": "Pole_6"
    },
    {
      "mesh": 2,
      "name": "Object_12"
    }
  ],
  "samplers": [
    {
      "magFilter": 9729,
      "minFilter": 9987,
      "wrapS": 10497,
      "wrapT": 10497
    }
  ],
  "scene": 0,
  "scenes": [
    {
      "name": "Sketchfab_Scene",
      "nodes": [
        0
      ]
    }
  ],
  "textures": [
    {
      "sampler": 0,
      "source": 0
    },
    {
      "sampler": 0,
      "source": 1
    },
    {
      "sampler": 0,
      "source": 2
    },
    {
      "sampler": 0,
      "source": 3
    },
    {
      "sampler": 0,
      "source": 4
    },
    {
      "sampler": 0,
      "source": 5
    },
    {
      "sampler": 0,
      "source": 6
    },
    {
      "sampler": 0,
      "source": 7
    },
    {
      "sampler": 0,
      "source": 8
    },
    {
      "sampler": 0,
      "source": 9
    }
  ]
}
